<mxfile host="Electron" agent="Mozilla/5.0 (Windows NT 10.0; Win64; x64) AppleWebKit/537.36 (KHTML, like Gecko) draw.io/27.0.9 Chrome/134.0.6998.205 Electron/35.4.0 Safari/537.36" version="27.0.9">
  <diagram id="kx4S5lE1ob1W81t0Tnj_" name="Page-1">
    <mxGraphModel dx="1261" dy="722" grid="1" gridSize="10" guides="1" tooltips="1" connect="1" arrows="1" fold="1" page="1" pageScale="1" pageWidth="1654" pageHeight="1169" math="0" shadow="0">
      <root>
        <mxCell id="0" />
        <mxCell id="1" parent="0" />
        <mxCell id="title" value="AWS Microservices Architecture - Complete System Overview" style="text;html=1;strokeColor=none;fillColor=none;align=center;verticalAlign=middle;whiteSpace=wrap;rounded=0;fontSize=20;fontStyle=1" parent="1" vertex="1">
          <mxGeometry x="527" y="10" width="600" height="40" as="geometry" />
        </mxCell>
        <mxCell id="legend_bg" value="" style="rounded=1;whiteSpace=wrap;html=1;fillColor=#f5f5f5;strokeColor=#666666;strokeWidth=2;" parent="1" vertex="1">
          <mxGeometry x="10" y="60" width="200" height="220" as="geometry" />
        </mxCell>
        <mxCell id="legend_title" value="LEGEND" style="text;html=1;strokeColor=none;fillColor=none;align=center;verticalAlign=middle;whiteSpace=wrap;rounded=0;fontSize=14;fontStyle=1" parent="1" vertex="1">
          <mxGeometry x="10" y="65" width="200" height="25" as="geometry" />
        </mxCell>
        <mxCell id="legend_client" value="Client/External" style="rounded=1;whiteSpace=wrap;html=1;fillColor=#fff2cc;strokeColor=#d6b656;" parent="1" vertex="1">
          <mxGeometry x="20" y="95" width="80" height="20" as="geometry" />
        </mxCell>
        <mxCell id="legend_api" value="API Gateway" style="rounded=1;whiteSpace=wrap;html=1;fillColor=#ffe6cc;strokeColor=#d79b00;" parent="1" vertex="1">
          <mxGeometry x="20" y="120" width="80" height="20" as="geometry" />
        </mxCell>
        <mxCell id="legend_lambda" value="Lambda Service" style="rounded=1;whiteSpace=wrap;html=1;fillColor=#dae8fc;strokeColor=#6c8ebf;" parent="1" vertex="1">
          <mxGeometry x="20" y="145" width="80" height="20" as="geometry" />
        </mxCell>
        <mxCell id="legend_event" value="Event/Messaging" style="rounded=1;whiteSpace=wrap;html=1;fillColor=#e1d5e7;strokeColor=#9673a6;" parent="1" vertex="1">
          <mxGeometry x="20" y="170" width="80" height="20" as="geometry" />
        </mxCell>
        <mxCell id="legend_database" value="Database" style="rounded=1;whiteSpace=wrap;html=1;fillColor=#d5e8d4;strokeColor=#82b366;" parent="1" vertex="1">
          <mxGeometry x="20" y="195" width="80" height="20" as="geometry" />
        </mxCell>
        <mxCell id="legend_sdk" value="AWS SDK Client" style="rounded=1;whiteSpace=wrap;html=1;fillColor=#f8cecc;strokeColor=#b85450;" parent="1" vertex="1">
          <mxGeometry x="20" y="220" width="80" height="20" as="geometry" />
        </mxCell>
        <mxCell id="legend_sync" value="Synchronous" style="text;html=1;align=left;fontSize=10;" parent="1" vertex="1">
          <mxGeometry x="110" y="95" width="90" height="20" as="geometry" />
        </mxCell>
        <mxCell id="legend_async" value="Asynchronous" style="text;html=1;align=left;fontSize=10;" parent="1" vertex="1">
          <mxGeometry x="110" y="110" width="90" height="20" as="geometry" />
        </mxCell>
        <mxCell id="legend_rest" value="REST API" style="text;html=1;align=left;fontSize=10;" parent="1" vertex="1">
          <mxGeometry x="110" y="125" width="90" height="20" as="geometry" />
        </mxCell>
        <mxCell id="legend_event_flow" value="Event Flow" style="text;html=1;align=left;fontSize=10;" parent="1" vertex="1">
          <mxGeometry x="110" y="140" width="90" height="20" as="geometry" />
        </mxCell>
        <mxCell id="legend_data" value="Data Access" style="text;html=1;align=left;fontSize=10;" parent="1" vertex="1">
          <mxGeometry x="110" y="155" width="90" height="20" as="geometry" />
        </mxCell>
        <mxCell id="client" value="Web/Mobile Clients" style="rounded=1;whiteSpace=wrap;html=1;fillColor=#fff2cc;strokeColor=#d6b656;fontSize=14;fontStyle=1" parent="1" vertex="1">
          <mxGeometry x="700" y="80" width="200" height="50" as="geometry" />
        </mxCell>
        <mxCell id="api_gateway_layer" value="API Gateway Layer" style="swimlane;startSize=20;fontSize=12;fontStyle=1;fillColor=#ffe6cc;strokeColor=#d79b00;" parent="1" vertex="1">
          <mxGeometry x="550" y="180" width="500" height="100" as="geometry" />
        </mxCell>
        <mxCell id="product_api" value="Product API&#xa;Gateway&#xa;/product/*" style="rounded=1;whiteSpace=wrap;html=1;fillColor=#ffe6cc;strokeColor=#d79b00;fontSize=10" parent="api_gateway_layer" vertex="1">
          <mxGeometry x="20" y="30" width="80" height="60" as="geometry" />
        </mxCell>
        <mxCell id="basket_api" value="Basket API&#xa;Gateway&#xa;/basket/*" style="rounded=1;whiteSpace=wrap;html=1;fillColor=#ffe6cc;strokeColor=#d79b00;fontSize=10" parent="api_gateway_layer" vertex="1">
          <mxGeometry x="210" y="30" width="80" height="60" as="geometry" />
        </mxCell>
        <mxCell id="order_api" value="Order API&#xa;Gateway&#xa;/order/*" style="rounded=1;whiteSpace=wrap;html=1;fillColor=#ffe6cc;strokeColor=#d79b00;fontSize=10" parent="api_gateway_layer" vertex="1">
          <mxGeometry x="400" y="30" width="80" height="60" as="geometry" />
        </mxCell>
        <mxCell id="lambda_layer" value="Lambda Microservices Layer" style="swimlane;startSize=20;fontSize=12;fontStyle=1;fillColor=#dae8fc;strokeColor=#6c8ebf;" parent="1" vertex="1">
          <mxGeometry x="550" y="320" width="500" height="120" as="geometry">
            <mxRectangle x="550" y="320" width="190" height="30" as="alternateBounds" />
          </mxGeometry>
        </mxCell>
        <mxCell id="product_lambda" value="Product&#xa;Microservice&#xa;Node.js 14.x&#xa;CRUD Operations" style="rounded=1;whiteSpace=wrap;html=1;fillColor=#dae8fc;strokeColor=#6c8ebf;fontSize=10" parent="lambda_layer" vertex="1">
          <mxGeometry x="20" y="30" width="80" height="80" as="geometry" />
        </mxCell>
        <mxCell id="basket_lambda" value="Basket&#xa;Microservice&#xa;Node.js 14.x&#xa;Cart + Checkout" style="rounded=1;whiteSpace=wrap;html=1;fillColor=#dae8fc;strokeColor=#6c8ebf;fontSize=10" parent="lambda_layer" vertex="1">
          <mxGeometry x="210" y="30" width="80" height="80" as="geometry" />
        </mxCell>
        <mxCell id="order_lambda" value="Order&#xa;Microservice&#xa;Node.js 14.x&#xa;Event Processing" style="rounded=1;whiteSpace=wrap;html=1;fillColor=#dae8fc;strokeColor=#6c8ebf;fontSize=10" parent="lambda_layer" vertex="1">
          <mxGeometry x="400" y="30" width="80" height="80" as="geometry" />
        </mxCell>
        <mxCell id="event_layer" value="Event-Driven Communication" style="swimlane;startSize=20;fontSize=12;fontStyle=1;fillColor=#e1d5e7;strokeColor=#9673a6;" parent="1" vertex="1">
          <mxGeometry x="130" y="320" width="280" height="200" as="geometry" />
        </mxCell>
        <mxCell id="eventbridge" value="AWS EventBridge&#xa;SwnEventBus&#xa;Source: com.swn.basket.checkoutbasket" style="rounded=1;whiteSpace=wrap;html=1;fillColor=#e1d5e7;strokeColor=#9673a6;fontSize=10" parent="event_layer" vertex="1">
          <mxGeometry x="-30" y="30" width="120" height="60" as="geometry" />
        </mxCell>
        <mxCell id="checkout_rule" value="CheckoutBasketRule&#xa;EventBridge Rule&#xa;Pattern Match" style="rounded=1;whiteSpace=wrap;html=1;fillColor=#e1d5e7;strokeColor=#9673a6;fontSize=10" parent="event_layer" vertex="1">
          <mxGeometry x="160" y="30" width="100" height="60" as="geometry" />
        </mxCell>
        <mxCell id="order_queue" value="Order Queue&#xa;AWS SQS&#xa;Batch Size: 1&#xa;Visibility: 30s" style="rounded=1;whiteSpace=wrap;html=1;fillColor=#e1d5e7;strokeColor=#9673a6;fontSize=10" parent="event_layer" vertex="1">
          <mxGeometry x="110" y="110" width="100" height="60" as="geometry" />
        </mxCell>
        <mxCell id="sdk_layer" value="AWS SDK Clients (v3)" style="swimlane;startSize=20;fontSize=12;fontStyle=1;fillColor=#f8cecc;strokeColor=#b85450;" parent="1" vertex="1">
          <mxGeometry x="550" y="480" width="500" height="100" as="geometry" />
        </mxCell>
        <mxCell id="product_ddb_client" value="DynamoDB&#xa;Client&#xa;Product Service" style="rounded=1;whiteSpace=wrap;html=1;fillColor=#f8cecc;strokeColor=#b85450;fontSize=10" parent="sdk_layer" vertex="1">
          <mxGeometry x="20" y="30" width="80" height="60" as="geometry" />
        </mxCell>
        <mxCell id="basket_ddb_client" value="DynamoDB&#xa;Client&#xa;Basket Service" style="rounded=1;whiteSpace=wrap;html=1;fillColor=#f8cecc;strokeColor=#b85450;fontSize=10" parent="sdk_layer" vertex="1">
          <mxGeometry x="150" y="30" width="80" height="60" as="geometry" />
        </mxCell>
        <mxCell id="eb_client" value="EventBridge&#xa;Client&#xa;Basket Service" style="rounded=1;whiteSpace=wrap;html=1;fillColor=#f8cecc;strokeColor=#b85450;fontSize=10" parent="sdk_layer" vertex="1">
          <mxGeometry x="250" y="30" width="80" height="60" as="geometry" />
        </mxCell>
        <mxCell id="order_ddb_client" value="DynamoDB&#xa;Client&#xa;Order Service" style="rounded=1;whiteSpace=wrap;html=1;fillColor=#f8cecc;strokeColor=#b85450;fontSize=10" parent="sdk_layer" vertex="1">
          <mxGeometry x="400" y="30" width="80" height="60" as="geometry" />
        </mxCell>
        <mxCell id="database_layer" value="Data Storage Layer (DynamoDB)" style="swimlane;startSize=20;fontSize=12;fontStyle=1;fillColor=#d5e8d4;strokeColor=#82b366;" parent="1" vertex="1">
          <mxGeometry x="550" y="620" width="500" height="120" as="geometry" />
        </mxCell>
        <mxCell id="product_db" value="Product Table&#xa;PK: id (String)&#xa;Attributes: name,&#xa;description, price,&#xa;category, imageFile" style="ellipse;whiteSpace=wrap;html=1;fillColor=#d5e8d4;strokeColor=#82b366;fontSize=10" parent="database_layer" vertex="1">
          <mxGeometry x="20" y="30" width="80" height="80" as="geometry" />
        </mxCell>
        <mxCell id="basket_db" value="Basket Table&#xa;PK: userName (String)&#xa;Attributes: items[]&#xa;Item: {productId, quantity,&#xa;price, productName, color}" style="ellipse;whiteSpace=wrap;html=1;fillColor=#d5e8d4;strokeColor=#82b366;fontSize=10" parent="database_layer" vertex="1">
          <mxGeometry x="150" y="40" width="80" height="80" as="geometry" />
        </mxCell>
        <mxCell id="order_db" value="Order Table&#xa;PK: userName (String)&#xa;SK: orderDate (String)&#xa;Attributes: totalPrice,&#xa;firstName, lastName, email,&#xa;address, paymentMethod" style="ellipse;whiteSpace=wrap;html=1;fillColor=#d5e8d4;strokeColor=#82b366;fontSize=10" parent="database_layer" vertex="1">
          <mxGeometry x="400" y="30" width="80" height="80" as="geometry" />
        </mxCell>
        <mxCell id="product_endpoints" value="Product API Endpoints:&#xa;GET /product (all)&#xa;POST /product (create)&#xa;GET /product/{id} (single)&#xa;PUT /product/{id} (update)&#xa;DELETE /product/{id} (delete)&#xa;GET /product/{id}?category=X (filter)" style="rounded=1;whiteSpace=wrap;html=1;fillColor=#fff2cc;strokeColor=#d6b656;fontSize=9;align=left;" parent="1" vertex="1">
          <mxGeometry x="1100" y="180" width="200" height="100" as="geometry" />
        </mxCell>
        <mxCell id="basket_endpoints" value="Basket API Endpoints:&#xa;GET /basket (all)&#xa;POST /basket (create/update)&#xa;GET /basket/{userName} (user basket)&#xa;DELETE /basket/{userName} (delete)&#xa;POST /basket/checkout (checkout)" style="rounded=1;whiteSpace=wrap;html=1;fillColor=#fff2cc;strokeColor=#d6b656;fontSize=9;align=left;" parent="1" vertex="1">
          <mxGeometry x="1100" y="300" width="200" height="80" as="geometry" />
        </mxCell>
        <mxCell id="order_endpoints" value="Order API Endpoints:&#xa;GET /order (all orders)&#xa;GET /order/{userName} (user orders)&#xa;GET /order/{userName}?orderDate=X (filtered)" style="rounded=1;whiteSpace=wrap;html=1;fillColor=#fff2cc;strokeColor=#d6b656;fontSize=9;align=left;" parent="1" vertex="1">
          <mxGeometry x="1100" y="400" width="200" height="60" as="geometry" />
        </mxCell>
        <mxCell id="data_flow_title" value="Critical Data Flows:" style="text;html=1;strokeColor=none;fillColor=none;align=center;verticalAlign=middle;whiteSpace=wrap;rounded=0;fontSize=12;fontStyle=1" parent="1" vertex="1">
          <mxGeometry x="1320" y="180" width="120" height="25" as="geometry" />
        </mxCell>
        <mxCell id="flow1" value="1. Product CRUD" style="text;html=1;strokeColor=none;fillColor=#dae8fc;align=left;fontSize=10;strokeColor=#6c8ebf;" parent="1" vertex="1">
          <mxGeometry x="1320" y="205" width="100" height="20" as="geometry" />
        </mxCell>
        <mxCell id="flow2" value="2. Basket Management" style="text;html=1;strokeColor=none;fillColor=#dae8fc;align=left;fontSize=10;strokeColor=#6c8ebf;" parent="1" vertex="1">
          <mxGeometry x="1320" y="225" width="120" height="20" as="geometry" />
        </mxCell>
        <mxCell id="flow3" value="3. Checkout → Event → Order" style="text;html=1;strokeColor=none;fillColor=#e1d5e7;align=left;fontSize=10;strokeColor=#9673a6;" parent="1" vertex="1">
          <mxGeometry x="1320" y="245" width="150" height="20" as="geometry" />
        </mxCell>
        <mxCell id="flow4" value="4. Order Query" style="text;html=1;strokeColor=none;fillColor=#dae8fc;align=left;fontSize=10;strokeColor=#6c8ebf;" parent="1" vertex="1">
          <mxGeometry x="1320" y="265" width="100" height="20" as="geometry" />
        </mxCell>
        <mxCell id="cdk_layer" value="Infrastructure as Code (AWS CDK v2.17.0)" style="swimlane;startSize=20;fontSize=12;fontStyle=1;fillColor=#ffcccc;strokeColor=#ff6666;" parent="1" vertex="1">
          <mxGeometry x="1320" y="300" width="280" height="200" as="geometry" />
        </mxCell>
        <mxCell id="cdk_stack" value="AwsMicroservicesStack" style="rounded=1;whiteSpace=wrap;html=1;fillColor=#ffcccc;strokeColor=#ff6666;fontSize=10;fontStyle=1" parent="cdk_layer" vertex="1">
          <mxGeometry x="20" y="30" width="120" height="30" as="geometry" />
        </mxCell>
        <mxCell id="cdk_database" value="SwnDatabase&#xa;Construct" style="rounded=1;whiteSpace=wrap;html=1;fillColor=#ffcccc;strokeColor=#ff6666;fontSize=9" parent="cdk_layer" vertex="1">
          <mxGeometry x="20" y="70" width="70" height="40" as="geometry" />
        </mxCell>
        <mxCell id="cdk_microservices" value="SwnMicroservices&#xa;Construct" style="rounded=1;whiteSpace=wrap;html=1;fillColor=#ffcccc;strokeColor=#ff6666;fontSize=9" parent="cdk_layer" vertex="1">
          <mxGeometry x="100" y="70" width="70" height="40" as="geometry" />
        </mxCell>
        <mxCell id="cdk_apigateway" value="SwnApiGateway&#xa;Construct" style="rounded=1;whiteSpace=wrap;html=1;fillColor=#ffcccc;strokeColor=#ff6666;fontSize=9" parent="cdk_layer" vertex="1">
          <mxGeometry x="180" y="70" width="70" height="40" as="geometry" />
        </mxCell>
        <mxCell id="cdk_queue" value="SwnQueue&#xa;Construct" style="rounded=1;whiteSpace=wrap;html=1;fillColor=#ffcccc;strokeColor=#ff6666;fontSize=9" parent="cdk_layer" vertex="1">
          <mxGeometry x="20" y="120" width="70" height="40" as="geometry" />
        </mxCell>
        <mxCell id="cdk_eventbus" value="SwnEventBus&#xa;Construct" style="rounded=1;whiteSpace=wrap;html=1;fillColor=#ffcccc;strokeColor=#ff6666;fontSize=9" parent="cdk_layer" vertex="1">
          <mxGeometry x="100" y="120" width="70" height="40" as="geometry" />
        </mxCell>
        <mxCell id="env_config" value="Environment Configuration:&#xa;• DYNAMODB_TABLE_NAME&#xa;• PRIMARY_KEY / SORT_KEY&#xa;• EVENT_SOURCE&#xa;• EVENT_DETAILTYPE&#xa;• EVENT_BUSNAME&#xa;&#xa;Runtime: Node.js 14.x&#xa;AWS SDK: v3 (latest modules)" style="rounded=1;whiteSpace=wrap;html=1;fillColor=#f5f5f5;strokeColor=#666666;fontSize=9;align=left;" parent="1" vertex="1">
          <mxGeometry x="1320" y="520" width="200" height="140" as="geometry" />
        </mxCell>
        <mxCell id="client_to_product_api" value="" style="endArrow=classic;html=1;rounded=0;exitX=0.25;exitY=1;exitDx=0;exitDy=0;entryX=0.5;entryY=0;entryDx=0;entryDy=0;strokeColor=#d79b00;strokeWidth=2;" parent="1" source="client" target="product_api" edge="1">
          <mxGeometry width="50" height="50" relative="1" as="geometry">
            <mxPoint x="780" y="150" as="sourcePoint" />
            <mxPoint x="830" y="100" as="targetPoint" />
            <Array as="points">
              <mxPoint x="750" y="160" />
              <mxPoint x="610" y="160" />
            </Array>
          </mxGeometry>
        </mxCell>
        <mxCell id="client_to_basket_api" value="" style="endArrow=classic;html=1;rounded=0;exitX=0.5;exitY=1;exitDx=0;exitDy=0;entryX=0.5;entryY=0;entryDx=0;entryDy=0;strokeColor=#d79b00;strokeWidth=2;" parent="1" source="client" target="basket_api" edge="1">
          <mxGeometry width="50" height="50" relative="1" as="geometry">
            <mxPoint x="800" y="130" as="sourcePoint" />
            <mxPoint x="850" y="80" as="targetPoint" />
          </mxGeometry>
        </mxCell>
        <mxCell id="client_to_order_api" value="" style="endArrow=classic;html=1;rounded=0;exitX=0.75;exitY=1;exitDx=0;exitDy=0;entryX=0.5;entryY=0;entryDx=0;entryDy=0;strokeColor=#d79b00;strokeWidth=2;" parent="1" source="client" target="order_api" edge="1">
          <mxGeometry width="50" height="50" relative="1" as="geometry">
            <mxPoint x="850" y="130" as="sourcePoint" />
            <mxPoint x="900" y="80" as="targetPoint" />
            <Array as="points">
              <mxPoint x="850" y="160" />
              <mxPoint x="990" y="160" />
            </Array>
          </mxGeometry>
        </mxCell>
        <mxCell id="product_api_to_lambda" value="" style="endArrow=classic;html=1;rounded=0;exitX=0.5;exitY=1;exitDx=0;exitDy=0;entryX=0.5;entryY=0;entryDx=0;entryDy=0;strokeColor=#6c8ebf;strokeWidth=2;" parent="1" source="product_api" target="product_lambda" edge="1">
          <mxGeometry width="50" height="50" relative="1" as="geometry">
            <mxPoint x="610" y="270" as="sourcePoint" />
            <mxPoint x="610" y="350" as="targetPoint" />
          </mxGeometry>
        </mxCell>
        <mxCell id="basket_api_to_lambda" value="" style="endArrow=classic;html=1;rounded=0;exitX=0.5;exitY=1;exitDx=0;exitDy=0;entryX=0.5;entryY=0;entryDx=0;entryDy=0;strokeColor=#6c8ebf;strokeWidth=2;" parent="1" source="basket_api" target="basket_lambda" edge="1">
          <mxGeometry width="50" height="50" relative="1" as="geometry">
            <mxPoint x="800" y="270" as="sourcePoint" />
            <mxPoint x="800" y="350" as="targetPoint" />
          </mxGeometry>
        </mxCell>
        <mxCell id="order_api_to_lambda" value="" style="endArrow=classic;html=1;rounded=0;exitX=0.5;exitY=1;exitDx=0;exitDy=0;entryX=0.5;entryY=0;entryDx=0;entryDy=0;strokeColor=#6c8ebf;strokeWidth=2;" parent="1" source="order_api" target="order_lambda" edge="1">
          <mxGeometry width="50" height="50" relative="1" as="geometry">
            <mxPoint x="990" y="270" as="sourcePoint" />
            <mxPoint x="990" y="350" as="targetPoint" />
          </mxGeometry>
        </mxCell>
        <mxCell id="product_lambda_to_sdk" value="" style="endArrow=classic;html=1;rounded=0;exitX=0.5;exitY=1;exitDx=0;exitDy=0;entryX=0.5;entryY=0;entryDx=0;entryDy=0;strokeColor=#b85450;strokeWidth=2;" parent="1" source="product_lambda" target="product_ddb_client" edge="1">
          <mxGeometry width="50" height="50" relative="1" as="geometry">
            <mxPoint x="610" y="420" as="sourcePoint" />
            <mxPoint x="610" y="510" as="targetPoint" />
          </mxGeometry>
        </mxCell>
        <mxCell id="basket_lambda_to_ddb_sdk" value="" style="endArrow=classic;html=1;rounded=0;exitX=0.25;exitY=1;exitDx=0;exitDy=0;entryX=0.5;entryY=0;entryDx=0;entryDy=0;strokeColor=#b85450;strokeWidth=2;" parent="1" source="basket_lambda" target="basket_ddb_client" edge="1">
          <mxGeometry width="50" height="50" relative="1" as="geometry">
            <mxPoint x="780" y="420" as="sourcePoint" />
            <mxPoint x="710" y="510" as="targetPoint" />
          </mxGeometry>
        </mxCell>
        <mxCell id="basket_lambda_to_eb_sdk" value="" style="endArrow=classic;html=1;rounded=0;exitX=0.75;exitY=1;exitDx=0;exitDy=0;entryX=0.5;entryY=0;entryDx=0;entryDy=0;strokeColor=#b85450;strokeWidth=2;" parent="1" source="basket_lambda" target="eb_client" edge="1">
          <mxGeometry width="50" height="50" relative="1" as="geometry">
            <mxPoint x="820" y="420" as="sourcePoint" />
            <mxPoint x="810" y="510" as="targetPoint" />
          </mxGeometry>
        </mxCell>
        <mxCell id="order_lambda_to_sdk" value="" style="endArrow=classic;html=1;rounded=0;exitX=0.5;exitY=1;exitDx=0;exitDy=0;entryX=0.5;entryY=0;entryDx=0;entryDy=0;strokeColor=#b85450;strokeWidth=2;" parent="1" source="order_lambda" target="order_ddb_client" edge="1">
          <mxGeometry width="50" height="50" relative="1" as="geometry">
            <mxPoint x="990" y="420" as="sourcePoint" />
            <mxPoint x="990" y="510" as="targetPoint" />
          </mxGeometry>
        </mxCell>
        <mxCell id="product_sdk_to_db" value="" style="endArrow=classic;html=1;rounded=0;exitX=0.5;exitY=1;exitDx=0;exitDy=0;entryX=0.5;entryY=0;entryDx=0;entryDy=0;strokeColor=#82b366;strokeWidth=2;" parent="1" source="product_ddb_client" target="product_db" edge="1">
          <mxGeometry width="50" height="50" relative="1" as="geometry">
            <mxPoint x="610" y="560" as="sourcePoint" />
            <mxPoint x="610" y="650" as="targetPoint" />
          </mxGeometry>
        </mxCell>
        <mxCell id="basket_sdk_to_db" value="" style="endArrow=classic;html=1;rounded=0;exitX=0.5;exitY=1;exitDx=0;exitDy=0;entryX=0.5;entryY=0;entryDx=0;entryDy=0;strokeColor=#82b366;strokeWidth=2;" parent="1" source="basket_ddb_client" target="basket_db" edge="1">
          <mxGeometry width="50" height="50" relative="1" as="geometry">
            <mxPoint x="710" y="560" as="sourcePoint" />
            <mxPoint x="800" y="650" as="targetPoint" />
          </mxGeometry>
        </mxCell>
        <mxCell id="order_sdk_to_db" value="" style="endArrow=classic;html=1;rounded=0;exitX=0.5;exitY=1;exitDx=0;exitDy=0;entryX=0.5;entryY=0;entryDx=0;entryDy=0;strokeColor=#82b366;strokeWidth=2;" parent="1" source="order_ddb_client" target="order_db" edge="1">
          <mxGeometry width="50" height="50" relative="1" as="geometry">
            <mxPoint x="990" y="560" as="sourcePoint" />
            <mxPoint x="990" y="650" as="targetPoint" />
          </mxGeometry>
        </mxCell>
        <mxCell id="eb_client_to_eventbridge" value="" style="endArrow=classic;html=1;rounded=0;exitX=0;exitY=0.5;exitDx=0;exitDy=0;entryX=1;entryY=0.5;entryDx=0;entryDy=0;strokeColor=#9673a6;strokeWidth=3;" parent="1" source="eb_client" target="eventbridge" edge="1">
          <mxGeometry width="50" height="50" relative="1" as="geometry">
            <mxPoint x="770" y="540" as="sourcePoint" />
            <mxPoint x="390" y="380" as="targetPoint" />
            <Array as="points">
              <mxPoint x="480" y="540" />
              <mxPoint x="480" y="380" />
            </Array>
          </mxGeometry>
        </mxCell>
        <mxCell id="eventbridge_to_rule" value="" style="endArrow=classic;html=1;rounded=0;exitX=1;exitY=0.5;exitDx=0;exitDy=0;entryX=0;entryY=0.5;entryDx=0;entryDy=0;strokeColor=#9673a6;strokeWidth=2;" parent="1" source="eventbridge" target="checkout_rule" edge="1">
          <mxGeometry width="50" height="50" relative="1" as="geometry">
            <mxPoint x="390" y="380" as="sourcePoint" />
            <mxPoint x="440" y="330" as="targetPoint" />
          </mxGeometry>
        </mxCell>
        <mxCell id="rule_to_queue" value="" style="endArrow=classic;html=1;rounded=0;exitX=0.5;exitY=1;exitDx=0;exitDy=0;entryX=0.5;entryY=0;entryDx=0;entryDy=0;strokeColor=#9673a6;strokeWidth=2;" parent="1" source="checkout_rule" target="order_queue" edge="1">
          <mxGeometry width="50" height="50" relative="1" as="geometry">
            <mxPoint x="460" y="410" as="sourcePoint" />
            <mxPoint x="380" y="470" as="targetPoint" />
          </mxGeometry>
        </mxCell>
        <mxCell id="queue_to_order_lambda" value="" style="endArrow=classic;html=1;rounded=0;exitX=1;exitY=0.5;exitDx=0;exitDy=0;entryX=0;entryY=0.5;entryDx=0;entryDy=0;strokeColor=#9673a6;strokeWidth=3;" parent="1" source="order_queue" target="order_lambda" edge="1">
          <mxGeometry width="50" height="50" relative="1" as="geometry">
            <mxPoint x="430" y="470" as="sourcePoint" />
            <mxPoint x="950" y="390" as="targetPoint" />
            <Array as="points">
              <mxPoint x="480" y="470" />
              <mxPoint x="480" y="390" />
            </Array>
          </mxGeometry>
        </mxCell>
        <mxCell id="https_label" value="HTTPS REST" style="text;html=1;strokeColor=none;fillColor=none;align=center;verticalAlign=middle;whiteSpace=wrap;rounded=0;fontSize=9;rotation=-45" parent="1" vertex="1">
          <mxGeometry x="740" y="140" width="60" height="20" as="geometry" />
        </mxCell>
        <mxCell id="lambda_proxy_label" value="Lambda Proxy Integration" style="text;html=1;strokeColor=none;fillColor=none;align=center;verticalAlign=middle;whiteSpace=wrap;rounded=0;fontSize=9;rotation=-90" parent="1" vertex="1">
          <mxGeometry x="770" y="290" width="60" height="20" as="geometry" />
        </mxCell>
        <mxCell id="aws_sdk_label" value="AWS SDK v3" style="text;html=1;strokeColor=none;fillColor=none;align=center;verticalAlign=middle;whiteSpace=wrap;rounded=0;fontSize=9;rotation=-90" parent="1" vertex="1">
          <mxGeometry x="770" y="450" width="60" height="20" as="geometry" />
        </mxCell>
        <mxCell id="ddb_crud_label" value="DynamoDB CRUD" style="text;html=1;strokeColor=none;fillColor=none;align=center;verticalAlign=middle;whiteSpace=wrap;rounded=0;fontSize=9;rotation=-90" parent="1" vertex="1">
          <mxGeometry x="770" y="590" width="60" height="20" as="geometry" />
        </mxCell>
        <mxCell id="event_flow_label" value="Checkout Event Flow" style="text;html=1;strokeColor=none;fillColor=none;align=center;verticalAlign=middle;whiteSpace=wrap;rounded=0;fontSize=9;rotation=45" parent="1" vertex="1">
          <mxGeometry x="430" y="420" width="80" height="20" as="geometry" />
        </mxCell>
        <mxCell id="arch_summary" value="SYSTEM SUMMARY:&#xa;&#xa;• 3 Microservices (Product, Basket, Order)&#xa;• 3 API Gateways (REST endpoints)&#xa;• 3 DynamoDB Tables (NoSQL storage)&#xa;• 1 EventBridge + 1 SQS Queue (async messaging)&#xa;• Event-driven checkout flow&#xa;• AWS CDK for Infrastructure as Code&#xa;• Node.js 14.x runtime&#xa;• AWS SDK v3 for service integration" style="rounded=1;whiteSpace=wrap;html=1;fillColor=#f0f0f0;strokeColor=#666666;fontSize=10;align=left;verticalAlign=top;" parent="1" vertex="1">
          <mxGeometry x="250" y="600" width="280" height="140" as="geometry" />
        </mxCell>
      </root>
    </mxGraphModel>
  </diagram>
</mxfile>
